<mxfile host="app.diagrams.net" modified="2024-02-14T17:37:41.963Z" agent="Mozilla/5.0 (Windows NT 10.0; Win64; x64) AppleWebKit/537.36 (KHTML, like Gecko) Chrome/121.0.0.0 Safari/537.36" etag="FuYrc0r833sDPqLdDJRY" version="23.1.4" type="github">
  <diagram name="Page-1" id="2YBvvXClWsGukQMizWep">
    <mxGraphModel dx="2074" dy="1193" grid="1" gridSize="10" guides="1" tooltips="1" connect="1" arrows="1" fold="1" page="1" pageScale="1" pageWidth="850" pageHeight="1100" math="0" shadow="0">
      <root>
        <mxCell id="0" />
        <mxCell id="1" parent="0" />
        <mxCell id="-wiIsBJB8Jqf40XsSl9I-12" value="&lt;h1&gt;User login&lt;/h1&gt;" style="text;html=1;spacing=5;spacingTop=-20;whiteSpace=wrap;overflow=hidden;rounded=0;" parent="1" vertex="1">
          <mxGeometry x="30" y="490" width="250" height="120" as="geometry" />
        </mxCell>
        <mxCell id="-wiIsBJB8Jqf40XsSl9I-11" value="&lt;h1&gt;User management&lt;/h1&gt;" style="text;html=1;spacing=5;spacingTop=-20;whiteSpace=wrap;overflow=hidden;rounded=0;" parent="1" vertex="1">
          <mxGeometry x="30" y="10" width="250" height="120" as="geometry" />
        </mxCell>
        <mxCell id="aM9ryv3xv72pqoxQDRHE-1" value="Active Directory" style="shape=umlLifeline;perimeter=lifelinePerimeter;whiteSpace=wrap;html=1;container=0;dropTarget=0;collapsible=0;recursiveResize=0;outlineConnect=0;portConstraint=eastwest;newEdgeStyle={&quot;edgeStyle&quot;:&quot;elbowEdgeStyle&quot;,&quot;elbow&quot;:&quot;vertical&quot;,&quot;curved&quot;:0,&quot;rounded&quot;:0};" parent="1" vertex="1">
          <mxGeometry x="40" y="90" width="100" height="310" as="geometry" />
        </mxCell>
        <mxCell id="aM9ryv3xv72pqoxQDRHE-2" value="" style="html=1;points=[];perimeter=orthogonalPerimeter;outlineConnect=0;targetShapes=umlLifeline;portConstraint=eastwest;newEdgeStyle={&quot;edgeStyle&quot;:&quot;elbowEdgeStyle&quot;,&quot;elbow&quot;:&quot;vertical&quot;,&quot;curved&quot;:0,&quot;rounded&quot;:0};" parent="aM9ryv3xv72pqoxQDRHE-1" vertex="1">
          <mxGeometry x="45" y="70" width="10" height="230" as="geometry" />
        </mxCell>
        <mxCell id="aM9ryv3xv72pqoxQDRHE-5" value="SSO" style="shape=umlLifeline;perimeter=lifelinePerimeter;whiteSpace=wrap;html=1;container=0;dropTarget=0;collapsible=0;recursiveResize=0;outlineConnect=0;portConstraint=eastwest;newEdgeStyle={&quot;edgeStyle&quot;:&quot;elbowEdgeStyle&quot;,&quot;elbow&quot;:&quot;vertical&quot;,&quot;curved&quot;:0,&quot;rounded&quot;:0};" parent="1" vertex="1">
          <mxGeometry x="220" y="90" width="100" height="310" as="geometry" />
        </mxCell>
        <mxCell id="aM9ryv3xv72pqoxQDRHE-6" value="" style="html=1;points=[];perimeter=orthogonalPerimeter;outlineConnect=0;targetShapes=umlLifeline;portConstraint=eastwest;newEdgeStyle={&quot;edgeStyle&quot;:&quot;elbowEdgeStyle&quot;,&quot;elbow&quot;:&quot;vertical&quot;,&quot;curved&quot;:0,&quot;rounded&quot;:0};" parent="aM9ryv3xv72pqoxQDRHE-5" vertex="1">
          <mxGeometry x="45" y="70" width="10" height="230" as="geometry" />
        </mxCell>
        <mxCell id="aM9ryv3xv72pqoxQDRHE-7" value="User created for&lt;br&gt;&#39;France Website 1&#39;" style="html=1;verticalAlign=bottom;endArrow=block;edgeStyle=elbowEdgeStyle;elbow=vertical;curved=0;rounded=0;" parent="1" source="aM9ryv3xv72pqoxQDRHE-2" target="aM9ryv3xv72pqoxQDRHE-6" edge="1">
          <mxGeometry x="-0.002" relative="1" as="geometry">
            <mxPoint x="195" y="180" as="sourcePoint" />
            <Array as="points">
              <mxPoint x="180" y="170" />
            </Array>
            <mxPoint as="offset" />
          </mxGeometry>
        </mxCell>
        <mxCell id="-wiIsBJB8Jqf40XsSl9I-1" value="CMS" style="shape=umlLifeline;perimeter=lifelinePerimeter;whiteSpace=wrap;html=1;container=0;dropTarget=0;collapsible=0;recursiveResize=0;outlineConnect=0;portConstraint=eastwest;newEdgeStyle={&quot;edgeStyle&quot;:&quot;elbowEdgeStyle&quot;,&quot;elbow&quot;:&quot;vertical&quot;,&quot;curved&quot;:0,&quot;rounded&quot;:0};" parent="1" vertex="1">
          <mxGeometry x="400" y="90" width="100" height="310" as="geometry" />
        </mxCell>
        <mxCell id="-wiIsBJB8Jqf40XsSl9I-2" value="" style="html=1;points=[];perimeter=orthogonalPerimeter;outlineConnect=0;targetShapes=umlLifeline;portConstraint=eastwest;newEdgeStyle={&quot;edgeStyle&quot;:&quot;elbowEdgeStyle&quot;,&quot;elbow&quot;:&quot;vertical&quot;,&quot;curved&quot;:0,&quot;rounded&quot;:0};" parent="-wiIsBJB8Jqf40XsSl9I-1" vertex="1">
          <mxGeometry x="45" y="70" width="10" height="230" as="geometry" />
        </mxCell>
        <mxCell id="-wiIsBJB8Jqf40XsSl9I-4" value="Client IT" style="swimlane;whiteSpace=wrap;html=1;" parent="1" vertex="1">
          <mxGeometry x="30" y="60" width="300" height="360" as="geometry" />
        </mxCell>
        <mxCell id="-wiIsBJB8Jqf40XsSl9I-33" value="User deleted" style="html=1;verticalAlign=bottom;endArrow=block;edgeStyle=elbowEdgeStyle;elbow=vertical;curved=0;rounded=0;" parent="-wiIsBJB8Jqf40XsSl9I-4" edge="1">
          <mxGeometry x="-0.002" relative="1" as="geometry">
            <mxPoint x="65" y="290" as="sourcePoint" />
            <Array as="points">
              <mxPoint x="145" y="290" />
            </Array>
            <mxPoint x="235" y="290" as="targetPoint" />
            <mxPoint as="offset" />
          </mxGeometry>
        </mxCell>
        <mxCell id="-wiIsBJB8Jqf40XsSl9I-3" value="Create user with role&lt;br&gt;&#39;Website 1 Editor&#39;" style="html=1;verticalAlign=bottom;endArrow=block;edgeStyle=elbowEdgeStyle;elbow=vertical;curved=0;rounded=0;" parent="1" edge="1">
          <mxGeometry relative="1" as="geometry">
            <mxPoint x="275" y="190" as="sourcePoint" />
            <Array as="points">
              <mxPoint x="365" y="190" />
            </Array>
            <mxPoint x="445" y="190" as="targetPoint" />
          </mxGeometry>
        </mxCell>
        <mxCell id="-wiIsBJB8Jqf40XsSl9I-5" value="User" style="shape=umlLifeline;perimeter=lifelinePerimeter;whiteSpace=wrap;html=1;container=0;dropTarget=0;collapsible=0;recursiveResize=0;outlineConnect=0;portConstraint=eastwest;newEdgeStyle={&quot;edgeStyle&quot;:&quot;elbowEdgeStyle&quot;,&quot;elbow&quot;:&quot;vertical&quot;,&quot;curved&quot;:0,&quot;rounded&quot;:0};" parent="1" vertex="1">
          <mxGeometry x="40" y="570" width="100" height="200" as="geometry" />
        </mxCell>
        <mxCell id="-wiIsBJB8Jqf40XsSl9I-6" value="" style="html=1;points=[];perimeter=orthogonalPerimeter;outlineConnect=0;targetShapes=umlLifeline;portConstraint=eastwest;newEdgeStyle={&quot;edgeStyle&quot;:&quot;elbowEdgeStyle&quot;,&quot;elbow&quot;:&quot;vertical&quot;,&quot;curved&quot;:0,&quot;rounded&quot;:0};" parent="-wiIsBJB8Jqf40XsSl9I-5" vertex="1">
          <mxGeometry x="45" y="70" width="10" height="120" as="geometry" />
        </mxCell>
        <mxCell id="-wiIsBJB8Jqf40XsSl9I-8" value="Revoke role&lt;br&gt;&#39;Website 1 Editor&#39;" style="html=1;verticalAlign=bottom;endArrow=block;edgeStyle=elbowEdgeStyle;elbow=vertical;curved=0;rounded=0;" parent="1" source="aM9ryv3xv72pqoxQDRHE-6" target="-wiIsBJB8Jqf40XsSl9I-2" edge="1">
          <mxGeometry relative="1" as="geometry">
            <mxPoint x="280" y="250" as="sourcePoint" />
            <Array as="points">
              <mxPoint x="370" y="250" />
            </Array>
            <mxPoint x="450" y="250" as="targetPoint" />
          </mxGeometry>
        </mxCell>
        <mxCell id="-wiIsBJB8Jqf40XsSl9I-10" value="Grant user with role&lt;br&gt;&#39;Website 2 Editor&#39;" style="html=1;verticalAlign=bottom;endArrow=block;edgeStyle=elbowEdgeStyle;elbow=vertical;curved=0;rounded=0;" parent="1" source="aM9ryv3xv72pqoxQDRHE-6" target="-wiIsBJB8Jqf40XsSl9I-2" edge="1">
          <mxGeometry relative="1" as="geometry">
            <mxPoint x="280" y="310" as="sourcePoint" />
            <Array as="points">
              <mxPoint x="375" y="310" />
            </Array>
            <mxPoint x="450" y="310" as="targetPoint" />
          </mxGeometry>
        </mxCell>
        <mxCell id="-wiIsBJB8Jqf40XsSl9I-13" value="Client IT" style="swimlane;whiteSpace=wrap;html=1;" parent="1" vertex="1">
          <mxGeometry x="390" y="540" width="300" height="250" as="geometry" />
        </mxCell>
        <mxCell id="-wiIsBJB8Jqf40XsSl9I-20" value="SSO" style="shape=umlLifeline;perimeter=lifelinePerimeter;whiteSpace=wrap;html=1;container=0;dropTarget=0;collapsible=0;recursiveResize=0;outlineConnect=0;portConstraint=eastwest;newEdgeStyle={&quot;edgeStyle&quot;:&quot;elbowEdgeStyle&quot;,&quot;elbow&quot;:&quot;vertical&quot;,&quot;curved&quot;:0,&quot;rounded&quot;:0};" parent="-wiIsBJB8Jqf40XsSl9I-13" vertex="1">
          <mxGeometry x="10" y="30" width="100" height="200" as="geometry" />
        </mxCell>
        <mxCell id="-wiIsBJB8Jqf40XsSl9I-21" value="" style="html=1;points=[];perimeter=orthogonalPerimeter;outlineConnect=0;targetShapes=umlLifeline;portConstraint=eastwest;newEdgeStyle={&quot;edgeStyle&quot;:&quot;elbowEdgeStyle&quot;,&quot;elbow&quot;:&quot;vertical&quot;,&quot;curved&quot;:0,&quot;rounded&quot;:0};" parent="-wiIsBJB8Jqf40XsSl9I-20" vertex="1">
          <mxGeometry x="45" y="70" width="10" height="120" as="geometry" />
        </mxCell>
        <mxCell id="-wiIsBJB8Jqf40XsSl9I-22" value="Active Directory" style="shape=umlLifeline;perimeter=lifelinePerimeter;whiteSpace=wrap;html=1;container=0;dropTarget=0;collapsible=0;recursiveResize=0;outlineConnect=0;portConstraint=eastwest;newEdgeStyle={&quot;edgeStyle&quot;:&quot;elbowEdgeStyle&quot;,&quot;elbow&quot;:&quot;vertical&quot;,&quot;curved&quot;:0,&quot;rounded&quot;:0};" parent="-wiIsBJB8Jqf40XsSl9I-13" vertex="1">
          <mxGeometry x="190" y="30" width="100" height="200" as="geometry" />
        </mxCell>
        <mxCell id="-wiIsBJB8Jqf40XsSl9I-23" value="" style="html=1;points=[];perimeter=orthogonalPerimeter;outlineConnect=0;targetShapes=umlLifeline;portConstraint=eastwest;newEdgeStyle={&quot;edgeStyle&quot;:&quot;elbowEdgeStyle&quot;,&quot;elbow&quot;:&quot;vertical&quot;,&quot;curved&quot;:0,&quot;rounded&quot;:0};" parent="-wiIsBJB8Jqf40XsSl9I-22" vertex="1">
          <mxGeometry x="45" y="70" width="10" height="120" as="geometry" />
        </mxCell>
        <mxCell id="-wiIsBJB8Jqf40XsSl9I-26" value="Authentication" style="html=1;verticalAlign=bottom;endArrow=block;edgeStyle=elbowEdgeStyle;elbow=vertical;curved=0;rounded=0;" parent="-wiIsBJB8Jqf40XsSl9I-13" edge="1">
          <mxGeometry x="-0.002" relative="1" as="geometry">
            <mxPoint x="65" y="150" as="sourcePoint" />
            <Array as="points">
              <mxPoint x="155" y="150" />
            </Array>
            <mxPoint x="235" y="150" as="targetPoint" />
            <mxPoint as="offset" />
          </mxGeometry>
        </mxCell>
        <mxCell id="-wiIsBJB8Jqf40XsSl9I-40" value="Authentication successful" style="html=1;verticalAlign=bottom;endArrow=none;edgeStyle=elbowEdgeStyle;elbow=vertical;curved=0;rounded=0;dashed=1;endFill=0;startArrow=classic;startFill=1;" parent="-wiIsBJB8Jqf40XsSl9I-13" edge="1">
          <mxGeometry x="-0.002" relative="1" as="geometry">
            <mxPoint x="65" y="169.65999999999997" as="sourcePoint" />
            <Array as="points">
              <mxPoint x="155" y="169.65999999999997" />
            </Array>
            <mxPoint x="235" y="169.65999999999997" as="targetPoint" />
            <mxPoint as="offset" />
          </mxGeometry>
        </mxCell>
        <mxCell id="-wiIsBJB8Jqf40XsSl9I-16" value="CMS" style="shape=umlLifeline;perimeter=lifelinePerimeter;whiteSpace=wrap;html=1;container=0;dropTarget=0;collapsible=0;recursiveResize=0;outlineConnect=0;portConstraint=eastwest;newEdgeStyle={&quot;edgeStyle&quot;:&quot;elbowEdgeStyle&quot;,&quot;elbow&quot;:&quot;vertical&quot;,&quot;curved&quot;:0,&quot;rounded&quot;:0};" parent="1" vertex="1">
          <mxGeometry x="220" y="570" width="100" height="200" as="geometry" />
        </mxCell>
        <mxCell id="-wiIsBJB8Jqf40XsSl9I-17" value="" style="html=1;points=[];perimeter=orthogonalPerimeter;outlineConnect=0;targetShapes=umlLifeline;portConstraint=eastwest;newEdgeStyle={&quot;edgeStyle&quot;:&quot;elbowEdgeStyle&quot;,&quot;elbow&quot;:&quot;vertical&quot;,&quot;curved&quot;:0,&quot;rounded&quot;:0};" parent="-wiIsBJB8Jqf40XsSl9I-16" vertex="1">
          <mxGeometry x="45" y="70" width="10" height="120" as="geometry" />
        </mxCell>
        <mxCell id="-wiIsBJB8Jqf40XsSl9I-18" value="User removed for&lt;br&gt;&#39;France Website 1&#39;" style="html=1;verticalAlign=bottom;endArrow=block;edgeStyle=elbowEdgeStyle;elbow=vertical;curved=0;rounded=0;" parent="1" source="aM9ryv3xv72pqoxQDRHE-2" target="aM9ryv3xv72pqoxQDRHE-6" edge="1">
          <mxGeometry x="-0.002" relative="1" as="geometry">
            <mxPoint x="100" y="229.66" as="sourcePoint" />
            <Array as="points">
              <mxPoint x="185" y="229.66" />
            </Array>
            <mxPoint x="270" y="229.66" as="targetPoint" />
            <mxPoint as="offset" />
          </mxGeometry>
        </mxCell>
        <mxCell id="-wiIsBJB8Jqf40XsSl9I-19" value="User added to&lt;br&gt;&#39;France Website 2&#39;" style="html=1;verticalAlign=bottom;endArrow=block;edgeStyle=elbowEdgeStyle;elbow=vertical;curved=0;rounded=0;" parent="1" source="aM9ryv3xv72pqoxQDRHE-2" target="aM9ryv3xv72pqoxQDRHE-6" edge="1">
          <mxGeometry x="-0.002" relative="1" as="geometry">
            <mxPoint x="90" y="290" as="sourcePoint" />
            <Array as="points">
              <mxPoint x="175" y="290" />
            </Array>
            <mxPoint x="260" y="290" as="targetPoint" />
            <mxPoint as="offset" />
          </mxGeometry>
        </mxCell>
        <mxCell id="-wiIsBJB8Jqf40XsSl9I-24" value="User logs in to CMS" style="html=1;verticalAlign=bottom;endArrow=block;edgeStyle=elbowEdgeStyle;elbow=vertical;curved=0;rounded=0;" parent="1" edge="1">
          <mxGeometry x="-0.002" relative="1" as="geometry">
            <mxPoint x="95" y="650" as="sourcePoint" />
            <Array as="points">
              <mxPoint x="180" y="650" />
            </Array>
            <mxPoint x="265" y="650" as="targetPoint" />
            <mxPoint as="offset" />
          </mxGeometry>
        </mxCell>
        <mxCell id="-wiIsBJB8Jqf40XsSl9I-25" value="Login request sent to SSO" style="html=1;verticalAlign=bottom;endArrow=block;edgeStyle=elbowEdgeStyle;elbow=vertical;curved=0;rounded=0;" parent="1" source="-wiIsBJB8Jqf40XsSl9I-17" target="-wiIsBJB8Jqf40XsSl9I-21" edge="1">
          <mxGeometry x="-0.002" relative="1" as="geometry">
            <mxPoint x="280" y="670" as="sourcePoint" />
            <Array as="points">
              <mxPoint x="365" y="670" />
            </Array>
            <mxPoint x="450" y="670" as="targetPoint" />
            <mxPoint as="offset" />
          </mxGeometry>
        </mxCell>
        <mxCell id="-wiIsBJB8Jqf40XsSl9I-27" value="" style="endArrow=classic;html=1;rounded=0;" parent="1" source="-wiIsBJB8Jqf40XsSl9I-2" edge="1">
          <mxGeometry width="50" height="50" relative="1" as="geometry">
            <mxPoint x="470.0003448275863" y="320" as="sourcePoint" />
            <mxPoint x="480" y="320" as="targetPoint" />
          </mxGeometry>
        </mxCell>
        <mxCell id="-wiIsBJB8Jqf40XsSl9I-28" value="User updated in CMS with new role" style="text;html=1;align=center;verticalAlign=middle;whiteSpace=wrap;rounded=0;strokeColor=default;" parent="1" vertex="1">
          <mxGeometry x="480" y="305" width="120" height="30" as="geometry" />
        </mxCell>
        <mxCell id="-wiIsBJB8Jqf40XsSl9I-29" value="" style="endArrow=classic;html=1;rounded=0;" parent="1" edge="1">
          <mxGeometry width="50" height="50" relative="1" as="geometry">
            <mxPoint x="455" y="255" as="sourcePoint" />
            <mxPoint x="480" y="255" as="targetPoint" />
          </mxGeometry>
        </mxCell>
        <mxCell id="-wiIsBJB8Jqf40XsSl9I-30" value="User updated in CMS with role removed" style="text;html=1;align=center;verticalAlign=middle;whiteSpace=wrap;rounded=0;strokeColor=default;" parent="1" vertex="1">
          <mxGeometry x="480" y="240" width="120" height="30" as="geometry" />
        </mxCell>
        <mxCell id="-wiIsBJB8Jqf40XsSl9I-31" value="" style="endArrow=classic;html=1;rounded=0;" parent="1" source="-wiIsBJB8Jqf40XsSl9I-2" edge="1">
          <mxGeometry width="50" height="50" relative="1" as="geometry">
            <mxPoint x="455" y="199" as="sourcePoint" />
            <mxPoint x="480" y="199" as="targetPoint" />
          </mxGeometry>
        </mxCell>
        <mxCell id="-wiIsBJB8Jqf40XsSl9I-32" value="User created in CMS with role" style="text;html=1;align=center;verticalAlign=middle;whiteSpace=wrap;rounded=0;strokeColor=default;" parent="1" vertex="1">
          <mxGeometry x="480" y="184" width="120" height="30" as="geometry" />
        </mxCell>
        <mxCell id="-wiIsBJB8Jqf40XsSl9I-34" value="Delete user" style="html=1;verticalAlign=bottom;endArrow=block;edgeStyle=elbowEdgeStyle;elbow=vertical;curved=0;rounded=0;" parent="1" source="aM9ryv3xv72pqoxQDRHE-6" target="-wiIsBJB8Jqf40XsSl9I-2" edge="1">
          <mxGeometry relative="1" as="geometry">
            <mxPoint x="280" y="370" as="sourcePoint" />
            <Array as="points">
              <mxPoint x="380" y="370" />
            </Array>
            <mxPoint x="450" y="370" as="targetPoint" />
          </mxGeometry>
        </mxCell>
        <mxCell id="-wiIsBJB8Jqf40XsSl9I-35" value="" style="endArrow=classic;html=1;rounded=0;" parent="1" edge="1">
          <mxGeometry width="50" height="50" relative="1" as="geometry">
            <mxPoint x="455" y="380" as="sourcePoint" />
            <mxPoint x="480" y="380" as="targetPoint" />
          </mxGeometry>
        </mxCell>
        <mxCell id="-wiIsBJB8Jqf40XsSl9I-36" value="User deleted from CMS" style="text;html=1;align=center;verticalAlign=middle;whiteSpace=wrap;rounded=0;strokeColor=default;" parent="1" vertex="1">
          <mxGeometry x="480" y="365" width="120" height="30" as="geometry" />
        </mxCell>
        <mxCell id="-wiIsBJB8Jqf40XsSl9I-41" value="User authenticated" style="html=1;verticalAlign=bottom;endArrow=none;edgeStyle=elbowEdgeStyle;elbow=vertical;curved=0;rounded=0;dashed=1;endFill=0;startArrow=classic;startFill=1;" parent="1" source="-wiIsBJB8Jqf40XsSl9I-17" target="-wiIsBJB8Jqf40XsSl9I-21" edge="1">
          <mxGeometry x="-0.002" relative="1" as="geometry">
            <mxPoint x="280" y="730" as="sourcePoint" />
            <Array as="points">
              <mxPoint x="370" y="730" />
            </Array>
            <mxPoint x="450" y="730" as="targetPoint" />
            <mxPoint as="offset" />
          </mxGeometry>
        </mxCell>
        <mxCell id="-wiIsBJB8Jqf40XsSl9I-42" value="Access granted" style="html=1;verticalAlign=bottom;endArrow=none;edgeStyle=elbowEdgeStyle;elbow=vertical;curved=0;rounded=0;dashed=1;endFill=0;startArrow=classic;startFill=1;" parent="1" edge="1">
          <mxGeometry x="-0.002" relative="1" as="geometry">
            <mxPoint x="95" y="750" as="sourcePoint" />
            <Array as="points">
              <mxPoint x="190" y="750" />
            </Array>
            <mxPoint x="265" y="750" as="targetPoint" />
            <mxPoint as="offset" />
          </mxGeometry>
        </mxCell>
        <mxCell id="AM--GxA2ObOH6W1ZWFRG-1" value="" style="endArrow=none;dashed=1;html=1;rounded=0;" edge="1" parent="1" target="aM9ryv3xv72pqoxQDRHE-5">
          <mxGeometry width="50" height="50" relative="1" as="geometry">
            <mxPoint x="270" y="480" as="sourcePoint" />
            <mxPoint x="450" y="380" as="targetPoint" />
          </mxGeometry>
        </mxCell>
        <mxCell id="AM--GxA2ObOH6W1ZWFRG-2" value="" style="endArrow=none;dashed=1;html=1;rounded=0;" edge="1" parent="1">
          <mxGeometry width="50" height="50" relative="1" as="geometry">
            <mxPoint x="449.5" y="480" as="sourcePoint" />
            <mxPoint x="449.5" y="400" as="targetPoint" />
          </mxGeometry>
        </mxCell>
        <mxCell id="AM--GxA2ObOH6W1ZWFRG-3" value="Scripted in SSO using CMS APIs" style="shape=process;whiteSpace=wrap;html=1;backgroundOutline=1;" vertex="1" parent="1">
          <mxGeometry x="280" y="430" width="160" height="50" as="geometry" />
        </mxCell>
      </root>
    </mxGraphModel>
  </diagram>
</mxfile>
